<?xml version="1.0" encoding="UTF-8" standalone="no"?>
<!-- Created with Inkscape (http://www.inkscape.org/) -->

<svg
   xmlns:dc="http://purl.org/dc/elements/1.1/"
   xmlns:cc="http://creativecommons.org/ns#"
   xmlns:rdf="http://www.w3.org/1999/02/22-rdf-syntax-ns#"
   xmlns:svg="http://www.w3.org/2000/svg"
   xmlns="http://www.w3.org/2000/svg"
   xmlns:sodipodi="http://sodipodi.sourceforge.net/DTD/sodipodi-0.dtd"
   xmlns:inkscape="http://www.inkscape.org/namespaces/inkscape"
   width="210mm"
   height="297mm"
   viewBox="0 0 210 297"
   version="1.1"
   id="svg3994"
   inkscape:version="0.92.3 (2405546, 2018-03-11)"
   sodipodi:docname="datteln.svg">
  <defs
     id="defs3988">
    <marker
       inkscape:stockid="Arrow1Mend"
       orient="auto"
       refY="0"
       refX="0"
       id="marker4431"
       style="overflow:visible"
       inkscape:isstock="true">
      <path
         id="path4433"
         d="M 0,0 5,-5 -12.5,0 5,5 Z"
         style="fill:#000000;fill-opacity:1;fill-rule:evenodd;stroke:#000000;stroke-width:1.00000003pt;stroke-opacity:1"
         transform="matrix(-0.4,0,0,-0.4,-4,0)"
         inkscape:connector-curvature="0" />
    </marker>
    <marker
       inkscape:isstock="true"
       style="overflow:visible"
       id="marker4540"
       refX="0"
       refY="0"
       orient="auto"
       inkscape:stockid="Arrow1Mend">
      <path
         transform="matrix(-0.4,0,0,-0.4,-4,0)"
         style="fill:#000000;fill-opacity:1;fill-rule:evenodd;stroke:#000000;stroke-width:1.00000003pt;stroke-opacity:1"
         d="M 0,0 5,-5 -12.5,0 5,5 Z"
         id="path4542"
         inkscape:connector-curvature="0" />
    </marker>
    <marker
       inkscape:isstock="true"
       style="overflow:visible"
       id="marker4661"
       refX="0"
       refY="0"
       orient="auto"
       inkscape:stockid="Arrow1Mend">
      <path
         transform="matrix(-0.4,0,0,-0.4,-4,0)"
         style="fill:#000000;fill-opacity:1;fill-rule:evenodd;stroke:#000000;stroke-width:1.00000003pt;stroke-opacity:1"
         d="M 0,0 5,-5 -12.5,0 5,5 Z"
         id="path4663"
         inkscape:connector-curvature="0" />
    </marker>
    <marker
       inkscape:isstock="true"
       style="overflow:visible"
       id="marker4788"
       refX="0"
       refY="0"
       orient="auto"
       inkscape:stockid="Arrow1Mend">
      <path
         transform="matrix(-0.4,0,0,-0.4,-4,0)"
         style="fill:#000000;fill-opacity:1;fill-rule:evenodd;stroke:#000000;stroke-width:1.00000003pt;stroke-opacity:1"
         d="M 0,0 5,-5 -12.5,0 5,5 Z"
         id="path4790"
         inkscape:connector-curvature="0" />
    </marker>
    <marker
       inkscape:isstock="true"
       style="overflow:visible"
       id="marker4921"
       refX="0"
       refY="0"
       orient="auto"
       inkscape:stockid="Arrow1Mend">
      <path
         transform="matrix(-0.4,0,0,-0.4,-4,0)"
         style="fill:#000000;fill-opacity:1;fill-rule:evenodd;stroke:#000000;stroke-width:1.00000003pt;stroke-opacity:1"
         d="M 0,0 5,-5 -12.5,0 5,5 Z"
         id="path4923"
         inkscape:connector-curvature="0" />
    </marker>
    <marker
       inkscape:isstock="true"
       style="overflow:visible"
       id="marker5060"
       refX="0"
       refY="0"
       orient="auto"
       inkscape:stockid="Arrow1Mend">
      <path
         transform="matrix(-0.4,0,0,-0.4,-4,0)"
         style="fill:#000000;fill-opacity:1;fill-rule:evenodd;stroke:#000000;stroke-width:1.00000003pt;stroke-opacity:1"
         d="M 0,0 5,-5 -12.5,0 5,5 Z"
         id="path5062"
         inkscape:connector-curvature="0" />
    </marker>
  </defs>
  <sodipodi:namedview
     id="base"
     pagecolor="#ffffff"
     bordercolor="#666666"
     borderopacity="1.0"
     inkscape:pageopacity="0.0"
     inkscape:pageshadow="2"
     inkscape:zoom="5.6"
     inkscape:cx="-31.683997"
     inkscape:cy="-25.090023"
     inkscape:document-units="mm"
     inkscape:current-layer="layer1"
     showgrid="false"
     inkscape:window-width="2560"
     inkscape:window-height="1395"
     inkscape:window-x="-13"
     inkscape:window-y="-13"
     inkscape:window-maximized="1" />
  <metadata
     id="metadata3991">
    <rdf:RDF>
      <cc:Work
         rdf:about="">
        <dc:format>image/svg+xml</dc:format>
        <dc:type
           rdf:resource="http://purl.org/dc/dcmitype/StillImage" />
        <dc:title></dc:title>
      </cc:Work>
    </rdf:RDF>
  </metadata>
  <g
     inkscape:label="Layer 1"
     inkscape:groupmode="layer"
     id="layer1">
    <g
       transform="matrix(0.67058032,0.36164787,-0.36164787,0.67058032,-4.2746968,121.84758)"
       id="g3855">
      <path
         sodipodi:nodetypes="cc"
         inkscape:connector-curvature="0"
         id="path3809"
         d="m 114.11303,210.51079 c -0.2607,-5.51551 -0.57772,-11.00173 0.38167,-17.15169"
         style="fill:none;fill-rule:evenodd;stroke:#020100;stroke-width:0.69999999;stroke-linecap:round;stroke-linejoin:bevel;stroke-miterlimit:4;stroke-dasharray:none;stroke-opacity:1" />
      <path
         style="fill:none;fill-rule:evenodd;stroke:#ff9752;stroke-width:0.26458332px;stroke-linecap:butt;stroke-linejoin:miter;stroke-opacity:1"
         d="m 114.11303,210.51079 c -0.2607,-5.51551 -0.57772,-11.00173 0.38167,-17.15169"
         id="path3811"
         inkscape:connector-curvature="0"
         sodipodi:nodetypes="cc" />
      <g
         id="g3817"
         transform="rotate(7.9907155,130.33446,195.8627)">
        <path
           sodipodi:nodetypes="zzz"
           inkscape:connector-curvature="0"
           id="path3813"
           d="m 115,188 c 1.48252,0.0609 2.48215,7.80591 -0.64208,7.62087 C 111.2337,195.43584 113.51748,187.93908 115,188 Z"
           style="opacity:1;vector-effect:none;fill:#cd5200;fill-opacity:1;fill-rule:evenodd;stroke:#000000;stroke-width:0.2274778;stroke-linecap:butt;stroke-linejoin:miter;stroke-miterlimit:4;stroke-dasharray:none;stroke-dashoffset:0;stroke-opacity:1" />
        <path
           style="opacity:1;vector-effect:none;fill:#ff8a3c;fill-opacity:1;fill-rule:evenodd;stroke:none;stroke-width:0.09756179;stroke-linecap:butt;stroke-linejoin:miter;stroke-miterlimit:4;stroke-dasharray:none;stroke-dashoffset:0;stroke-opacity:1"
           d="m 114.5425,194.49623 c 0.87561,0.007 1.16264,-0.21174 1.1501,0.0404 -0.0152,0.3068 -0.19632,0.68599 -1.16832,0.81235 -0.70409,0.0915 -1.4535,-0.71568 -1.37056,-1.13183 0.0967,-0.48545 0.83896,0.27488 1.38878,0.27903 z"
           id="path3815"
           inkscape:connector-curvature="0"
           sodipodi:nodetypes="sssss" />
      </g>
      <g
         id="g3823"
         transform="rotate(-41.51319,117.93253,198.47436)">
        <path
           style="opacity:1;vector-effect:none;fill:#cd5200;fill-opacity:1;fill-rule:evenodd;stroke:#000000;stroke-width:0.2274778;stroke-linecap:butt;stroke-linejoin:miter;stroke-miterlimit:4;stroke-dasharray:none;stroke-dashoffset:0;stroke-opacity:1"
           d="m 115,188 c 1.48252,0.0609 2.48215,7.80591 -0.64208,7.62087 C 111.2337,195.43584 113.51748,187.93908 115,188 Z"
           id="path3819"
           inkscape:connector-curvature="0"
           sodipodi:nodetypes="zzz" />
        <path
           sodipodi:nodetypes="sssss"
           inkscape:connector-curvature="0"
           id="path3821"
           d="m 114.5425,194.49623 c 0.87561,0.007 1.16264,-0.21174 1.1501,0.0404 -0.0152,0.3068 -0.19632,0.68599 -1.16832,0.81235 -0.70409,0.0915 -1.4535,-0.71568 -1.37056,-1.13183 0.0967,-0.48545 0.83896,0.27488 1.38878,0.27903 z"
           style="opacity:1;vector-effect:none;fill:#ff8a3c;fill-opacity:1;fill-rule:evenodd;stroke:none;stroke-width:0.09756179;stroke-linecap:butt;stroke-linejoin:miter;stroke-miterlimit:4;stroke-dasharray:none;stroke-dashoffset:0;stroke-opacity:1" />
      </g>
      <g
         transform="rotate(-50.656318,121.94671,200.84971)"
         id="g3829">
        <path
           sodipodi:nodetypes="zzz"
           inkscape:connector-curvature="0"
           id="path3825"
           d="m 115,188 c 1.48252,0.0609 2.48215,7.80591 -0.64208,7.62087 C 111.2337,195.43584 113.51748,187.93908 115,188 Z"
           style="opacity:1;vector-effect:none;fill:#cd5200;fill-opacity:1;fill-rule:evenodd;stroke:#000000;stroke-width:0.2274778;stroke-linecap:butt;stroke-linejoin:miter;stroke-miterlimit:4;stroke-dasharray:none;stroke-dashoffset:0;stroke-opacity:1" />
        <path
           style="opacity:1;vector-effect:none;fill:#ff8a3c;fill-opacity:1;fill-rule:evenodd;stroke:none;stroke-width:0.09756179;stroke-linecap:butt;stroke-linejoin:miter;stroke-miterlimit:4;stroke-dasharray:none;stroke-dashoffset:0;stroke-opacity:1"
           d="m 114.5425,194.49623 c 0.87561,0.007 1.16264,-0.21174 1.1501,0.0404 -0.0152,0.3068 -0.19632,0.68599 -1.16832,0.81235 -0.70409,0.0915 -1.4535,-0.71568 -1.37056,-1.13183 0.0967,-0.48545 0.83896,0.27488 1.38878,0.27903 z"
           id="path3827"
           inkscape:connector-curvature="0"
           sodipodi:nodetypes="sssss" />
      </g>
      <g
         id="g3835"
         transform="rotate(-63.978757,124.33355,202.61055)">
        <path
           style="opacity:1;vector-effect:none;fill:#cd5200;fill-opacity:1;fill-rule:evenodd;stroke:#000000;stroke-width:0.2274778;stroke-linecap:butt;stroke-linejoin:miter;stroke-miterlimit:4;stroke-dasharray:none;stroke-dashoffset:0;stroke-opacity:1"
           d="m 115,188 c 1.48252,0.0609 2.48215,7.80591 -0.64208,7.62087 C 111.2337,195.43584 113.51748,187.93908 115,188 Z"
           id="path3831"
           inkscape:connector-curvature="0"
           sodipodi:nodetypes="zzz" />
        <path
           sodipodi:nodetypes="sssss"
           inkscape:connector-curvature="0"
           id="path3833"
           d="m 114.5425,194.49623 c 0.87561,0.007 1.16264,-0.21174 1.1501,0.0404 -0.0152,0.3068 -0.19632,0.68599 -1.16832,0.81235 -0.70409,0.0915 -1.4535,-0.71568 -1.37056,-1.13183 0.0967,-0.48545 0.83896,0.27488 1.38878,0.27903 z"
           style="opacity:1;vector-effect:none;fill:#ff8a3c;fill-opacity:1;fill-rule:evenodd;stroke:none;stroke-width:0.09756179;stroke-linecap:butt;stroke-linejoin:miter;stroke-miterlimit:4;stroke-dasharray:none;stroke-dashoffset:0;stroke-opacity:1" />
      </g>
      <g
         transform="rotate(31.992742,89.298923,203.69127)"
         id="g3841">
        <path
           sodipodi:nodetypes="zzz"
           inkscape:connector-curvature="0"
           id="path3837"
           d="m 115,188 c 1.48252,0.0609 2.48215,7.80591 -0.64208,7.62087 C 111.2337,195.43584 113.51748,187.93908 115,188 Z"
           style="opacity:1;vector-effect:none;fill:#cd5200;fill-opacity:1;fill-rule:evenodd;stroke:#000000;stroke-width:0.2274778;stroke-linecap:butt;stroke-linejoin:miter;stroke-miterlimit:4;stroke-dasharray:none;stroke-dashoffset:0;stroke-opacity:1" />
        <path
           style="opacity:1;vector-effect:none;fill:#ff8a3c;fill-opacity:1;fill-rule:evenodd;stroke:none;stroke-width:0.09756179;stroke-linecap:butt;stroke-linejoin:miter;stroke-miterlimit:4;stroke-dasharray:none;stroke-dashoffset:0;stroke-opacity:1"
           d="m 114.5425,194.49623 c 0.87561,0.007 1.16264,-0.21174 1.1501,0.0404 -0.0152,0.3068 -0.19632,0.68599 -1.16832,0.81235 -0.70409,0.0915 -1.4535,-0.71568 -1.37056,-1.13183 0.0967,-0.48545 0.83896,0.27488 1.38878,0.27903 z"
           id="path3839"
           inkscape:connector-curvature="0"
           sodipodi:nodetypes="sssss" />
      </g>
      <g
         id="g3847"
         transform="rotate(31.992742,99.499925,199.77127)">
        <path
           style="opacity:1;vector-effect:none;fill:#cd5200;fill-opacity:1;fill-rule:evenodd;stroke:#000000;stroke-width:0.2274778;stroke-linecap:butt;stroke-linejoin:miter;stroke-miterlimit:4;stroke-dasharray:none;stroke-dashoffset:0;stroke-opacity:1"
           d="m 115,188 c 1.48252,0.0609 2.48215,7.80591 -0.64208,7.62087 C 111.2337,195.43584 113.51748,187.93908 115,188 Z"
           id="path3843"
           inkscape:connector-curvature="0"
           sodipodi:nodetypes="zzz" />
        <path
           sodipodi:nodetypes="sssss"
           inkscape:connector-curvature="0"
           id="path3845"
           d="m 114.5425,194.49623 c 0.87561,0.007 1.16264,-0.21174 1.1501,0.0404 -0.0152,0.3068 -0.19632,0.68599 -1.16832,0.81235 -0.70409,0.0915 -1.4535,-0.71568 -1.37056,-1.13183 0.0967,-0.48545 0.83896,0.27488 1.38878,0.27903 z"
           style="opacity:1;vector-effect:none;fill:#ff8a3c;fill-opacity:1;fill-rule:evenodd;stroke:none;stroke-width:0.09756179;stroke-linecap:butt;stroke-linejoin:miter;stroke-miterlimit:4;stroke-dasharray:none;stroke-dashoffset:0;stroke-opacity:1" />
      </g>
      <g
         transform="rotate(35.157961,110.86443,196.87234)"
         id="g3853">
        <path
           sodipodi:nodetypes="zzz"
           inkscape:connector-curvature="0"
           id="path3849"
           d="m 115,188 c 1.48252,0.0609 2.48215,7.80591 -0.64208,7.62087 C 111.2337,195.43584 113.51748,187.93908 115,188 Z"
           style="opacity:1;vector-effect:none;fill:#cd5200;fill-opacity:1;fill-rule:evenodd;stroke:#000000;stroke-width:0.2274778;stroke-linecap:butt;stroke-linejoin:miter;stroke-miterlimit:4;stroke-dasharray:none;stroke-dashoffset:0;stroke-opacity:1" />
        <path
           style="opacity:1;vector-effect:none;fill:#ff8a3c;fill-opacity:1;fill-rule:evenodd;stroke:none;stroke-width:0.09756179;stroke-linecap:butt;stroke-linejoin:miter;stroke-miterlimit:4;stroke-dasharray:none;stroke-dashoffset:0;stroke-opacity:1"
           d="m 114.5425,194.49623 c 0.87561,0.007 1.16264,-0.21174 1.1501,0.0404 -0.0152,0.3068 -0.19632,0.68599 -1.16832,0.81235 -0.70409,0.0915 -1.4535,-0.71568 -1.37056,-1.13183 0.0967,-0.48545 0.83896,0.27488 1.38878,0.27903 z"
           id="path3851"
           inkscape:connector-curvature="0"
           sodipodi:nodetypes="sssss" />
      </g>
    </g>
  </g>
</svg>
