<?xml version="1.0" encoding="UTF-8" standalone="no"?>
<!-- Created with Inkscape (http://www.inkscape.org/) -->

<svg
   xmlns:dc="http://purl.org/dc/elements/1.1/"
   xmlns:cc="http://creativecommons.org/ns#"
   xmlns:rdf="http://www.w3.org/1999/02/22-rdf-syntax-ns#"
   xmlns:svg="http://www.w3.org/2000/svg"
   xmlns="http://www.w3.org/2000/svg"
   xmlns:sodipodi="http://sodipodi.sourceforge.net/DTD/sodipodi-0.dtd"
   xmlns:inkscape="http://www.inkscape.org/namespaces/inkscape"
   width="210mm"
   height="297mm"
   viewBox="0 0 210 297"
   version="1.1"
   id="svg3994"
   inkscape:version="0.92.3 (2405546, 2018-03-11)"
   sodipodi:docname="garten.svg">
  <defs
     id="defs3988" />
  <sodipodi:namedview
     id="base"
     pagecolor="#ffffff"
     bordercolor="#666666"
     borderopacity="1.0"
     inkscape:pageopacity="0.0"
     inkscape:pageshadow="2"
     inkscape:zoom="1.4"
     inkscape:cx="-208.57143"
     inkscape:cy="-46.280194"
     inkscape:document-units="mm"
     inkscape:current-layer="layer1"
     showgrid="false"
     inkscape:window-width="2560"
     inkscape:window-height="1395"
     inkscape:window-x="-13"
     inkscape:window-y="-13"
     inkscape:window-maximized="1" />
  <metadata
     id="metadata3991">
    <rdf:RDF>
      <cc:Work
         rdf:about="">
        <dc:format>image/svg+xml</dc:format>
        <dc:type
           rdf:resource="http://purl.org/dc/dcmitype/StillImage" />
        <dc:title></dc:title>
      </cc:Work>
    </rdf:RDF>
  </metadata>
  <g
     inkscape:label="Layer 1"
     inkscape:groupmode="layer"
     id="layer1">
    <g
       style="display:inline;stroke-width:2.02692652"
       id="g1793"
       transform="matrix(0.49606767,0,0,0.49066271,-17.102279,45.462002)">
      <g
         transform="translate(-19.772595,-12.844544)"
         id="g1545"
         style="stroke-width:2.02692652">
        <path
           sodipodi:nodetypes="cc"
           inkscape:connector-curvature="0"
           id="path1410"
           d="m 58.88623,521.64358 c -1.92487,3.74989 -5.761378,7.64794 -4.514738,15.34574"
           style="opacity:1;fill:none;fill-opacity:1;stroke:#7d6342;stroke-width:1.21615601;stroke-linecap:round;stroke-linejoin:miter;stroke-miterlimit:4;stroke-dasharray:none;stroke-dashoffset:0;stroke-opacity:1" />
        <path
           sodipodi:nodetypes="cc"
           inkscape:connector-curvature="0"
           id="path1414"
           d="m 52.18463,520.33443 c -1.25553,1.67016 -0.87437,3.58177 0.62563,5.71635"
           style="opacity:1;fill:none;fill-opacity:1;stroke:#7d6342;stroke-width:0.50673163;stroke-linecap:round;stroke-linejoin:miter;stroke-miterlimit:4;stroke-dasharray:none;stroke-dashoffset:0;stroke-opacity:1" />
        <path
           style="opacity:1;fill:none;fill-opacity:1;stroke:#7d6342;stroke-width:0.76552385;stroke-linecap:round;stroke-linejoin:miter;stroke-miterlimit:4;stroke-dasharray:none;stroke-dashoffset:0;stroke-opacity:1"
           d="m 48.89505,520.69548 c -0.97471,4.83939 6.33529,3.67755 5.51411,9.94417"
           id="path1412"
           inkscape:connector-curvature="0"
           sodipodi:nodetypes="cc" />
        <path
           style="opacity:1;fill:#3c5337;fill-opacity:1;stroke:#3c5337;stroke-width:0.608078;stroke-linecap:round;stroke-linejoin:round;stroke-miterlimit:4;stroke-dasharray:none;stroke-dashoffset:0;stroke-opacity:1"
           d="m 46.76605,515.05186 a 0.96453414,0.96453414 0 0 0 0.72473,1.15525 0.96453414,0.96453414 0 0 0 0.16105,0.0232 0.96453414,0.96453414 0 0 0 0.64343,0.6385 0.96453414,0.96453414 0 0 0 0.7473,0.95598 A 0.96453414,0.96453414 0 0 0 50,517.5 a 0.96453414,0.96453414 0 0 0 0.0742,0.021 0.96453414,0.96453414 0 0 0 0.37882,0.01 0.96453414,0.96453414 0 0 0 0.68367,0.59496 0.96453414,0.96453414 0 0 0 1.06146,-0.47815 0.96453414,0.96453414 0 0 0 0.008,0.002 0.96453414,0.96453414 0 0 0 1.15636,-0.72502 0.96453414,0.96453414 0 0 0 0.0211,-0.289 0.96453414,0.96453414 0 0 0 1.02428,-0.48471 0.96453414,0.96453414 0 0 0 0.008,0.002 0.96453414,0.96453414 0 0 0 1.15586,-0.72513 0.96453414,0.96453414 0 0 0 -0.72474,-1.15524 0.96453414,0.96453414 0 0 0 -0.54792,0.0353 0.96453414,0.96453414 0 0 0 -0.74813,-0.93288 l 2.2e-4,-10e-4 a 0.96453414,0.96453414 0 0 0 -0.94158,0.30552 0.96453414,0.96453414 0 0 0 -0.59452,-0.41773 0.96453414,0.96453414 0 0 0 -0.91531,0.27743 0.96453414,0.96453414 0 0 0 -0.10304,-0.0295 0.96453414,0.96453414 0 0 0 -0.16104,-0.0232 0.96453414,0.96453414 0 0 0 -0.70464,-0.65616 0.96453414,0.96453414 0 0 0 -1.15574,0.72463 0.96453414,0.96453414 0 0 0 0.72473,1.15524 0.96453414,0.96453414 0 0 0 0.16105,0.0232 0.96453414,0.96453414 0 0 0 0.0162,0.0443 0.96453414,0.96453414 0 0 0 -0.0724,-0.0196 0.96453414,0.96453414 0 0 0 -0.9148,0.27754 0.96453414,0.96453414 0 0 0 -0.10344,-0.0301 0.96453414,0.96453414 0 0 0 -0.16065,-0.0226 0.96453414,0.96453414 0 0 0 -0.70502,-0.65678 0.96453414,0.96453414 0 0 0 -1.15586,0.72513 z"
           id="path1397"
           inkscape:connector-curvature="0" />
        <path
           inkscape:connector-curvature="0"
           style="opacity:1;fill:#e4ca98;fill-opacity:1;stroke:#3c5337;stroke-width:0.81077063;stroke-linecap:round;stroke-linejoin:round;stroke-miterlimit:4;stroke-dasharray:none;stroke-dashoffset:0;stroke-opacity:1"
           d="m 57.72617,514.37849 a 1.6180339,1 0 0 0 -1.61695,0.98651 1.5796585,0.97628275 0 0 0 -0.78393,-0.12971 1.5796585,0.97628275 0 0 0 -1.57975,0.97617 1.5796585,0.97628275 0 0 0 0.0238,0.16329 1.6180339,1 0 0 0 -0.17673,-0.007 1.6180339,1 0 0 0 -0.64647,0.0842 1.6180339,1 0 0 0 -1.57925,-0.78704 1.6180339,1 0 0 0 -1.61695,0.9865 1.5796585,0.97628275 0 0 0 -0.78393,-0.12971 1.5796585,0.97628275 0 0 0 -1.57975,0.97617 1.5796585,0.97628275 0 0 0 0.51159,0.71779 1.6180339,1 0 0 0 -0.51314,-0.0538 1.6180339,1 0 0 0 -0.64647,0.0842 1.6180339,1 0 0 0 -1.57924,-0.78704 1.6180339,1 0 0 0 -1.61695,0.98651 1.5796585,0.97628275 0 0 0 -0.78393,-0.12971 1.5796585,0.97628275 0 0 0 -1.57975,0.97617 1.5796585,0.97628275 0 0 0 0.81132,0.85266 1.6180339,1 0 0 0 -0.03,0.18862 1.6180339,1 0 0 0 1.618,0.99994 1.6180339,1 0 0 0 1.40611,-0.50695 1.6180339,1 0 0 0 0.99425,0.47284 1.6180339,1 0 0 0 1.58234,0.7953 1.6180339,1 0 0 0 1.57148,-0.76739 1.6180339,1 0 0 0 1.43143,-0.84388 1.6180339,1 0 0 0 0.97927,0.20567 1.6180339,1 0 0 0 1.42059,-0.52296 1.6180339,1 0 0 0 0.1726,0.0527 0.96453414,0.96453414 0 0 0 0.96066,0.87694 0.96453414,0.96453414 0 0 0 0.16175,-0.0134 0.96453414,0.96453414 0 0 0 0.76998,0.47853 0.96453414,0.96453414 0 0 0 0.94206,0.76481 0.96453414,0.96453414 0 0 0 0.86041,-0.53072 0.96453414,0.96453414 0 0 0 0.077,0.004 0.96453414,0.96453414 0 0 0 0.37155,-0.0755 0.96453414,0.96453414 0 0 0 0.79892,0.42685 0.96453414,0.96453414 0 0 0 0.92811,-0.70331 0.96453414,0.96453414 0 0 0 0.009,5.2e-4 0.96453414,0.96453414 0 0 0 0.38138,-0.0785 0.96453414,0.96453414 0 0 0 0.55655,0.17777 0.96453414,0.96453414 0 0 0 0.16175,-0.0134 0.96453414,0.96453414 0 0 0 0.76998,0.47904 0.96453414,0.96453414 0 0 0 0.94206,0.76481 0.96453414,0.96453414 0 0 0 0.86041,-0.53123 0.96453414,0.96453414 0 0 0 0.077,0.004 0.96453414,0.96453414 0 0 0 0.37155,-0.0755 0.96453414,0.96453414 0 0 0 0.79944,0.42685 0.96453414,0.96453414 0 0 0 0.92759,-0.70332 0.96453414,0.96453414 0 0 0 0.009,5.3e-4 0.96453414,0.96453414 0 0 0 0.9648,-0.9648 0.96453414,0.96453414 0 0 0 -0.51418,-0.85214 1.6180339,1 0 0 0 1.25781,-0.97359 1.6180339,1 0 0 0 -1.61799,-0.99994 1.6180339,1 0 0 0 -0.6997,0.0992 1.6180339,1 0 0 0 -1.14463,-0.76377 1.6180339,1 0 0 0 0.0129,-0.0408 1.6180339,1 0 0 0 0.97927,0.20567 1.6180339,1 0 0 0 1.61798,-0.99994 1.6180339,1 0 0 0 -1.61798,-0.99994 1.6180339,1 0 0 0 -0.6997,0.0992 1.6180339,1 0 0 0 -1.5844,-0.80202 1.6180339,1 0 0 0 -1.1343,0.28733 1.6180339,1 0 0 0 -0.73949,-0.11163 1.6180339,1 0 0 0 -0.64647,0.0842 1.6180339,1 0 0 0 -1.57923,-0.78704 z"
           id="path297" />
        <path
           style="opacity:1;fill:none;fill-opacity:1;stroke:#7d6342;stroke-width:0.50673163;stroke-linecap:round;stroke-linejoin:miter;stroke-miterlimit:4;stroke-dasharray:none;stroke-dashoffset:0;stroke-opacity:1"
           d="m 55.21989,518.43385 c -1.369,1.75526 2.68574,3.21089 1.54993,6.31212"
           id="path1416"
           inkscape:connector-curvature="0"
           sodipodi:nodetypes="cc" />
        <path
           sodipodi:nodetypes="cc"
           inkscape:connector-curvature="0"
           id="path1418"
           d="m 59.35851,518.91806 c -2.20425,1.99973 -1.15245,2.19257 -2.71607,6.14263"
           style="opacity:1;fill:none;fill-opacity:1;stroke:#7d6342;stroke-width:0.50673163;stroke-linecap:round;stroke-linejoin:miter;stroke-miterlimit:4;stroke-dasharray:none;stroke-dashoffset:0;stroke-opacity:1" />
        <path
           style="opacity:1;fill:none;fill-opacity:1;stroke:#7d6342;stroke-width:0.50673163;stroke-linecap:round;stroke-linejoin:miter;stroke-miterlimit:4;stroke-dasharray:none;stroke-dashoffset:0;stroke-opacity:1"
           d="m 56.69496,518.88772 c 0.31703,0.62058 0.52207,1.28723 -0.0771,3.10978"
           id="path1420"
           inkscape:connector-curvature="0"
           sodipodi:nodetypes="cc" />
        <path
           style="opacity:1;fill:#3c5337;fill-opacity:1;stroke:#3c5337;stroke-width:0.608078;stroke-linecap:round;stroke-linejoin:round;stroke-miterlimit:4;stroke-dasharray:none;stroke-dashoffset:0;stroke-opacity:1"
           d="m 56.4101,520.01904 a 0.96453416,0.96453416 0 0 0 0.87191,-0.46914 0.96453416,0.96453416 0 0 0 0.65958,0.30487 0.96453416,0.96453416 0 0 0 0.85078,-0.43648 0.96453416,0.96453416 0 0 0 0.10709,0.0109 0.96453416,0.96453416 0 0 0 0.16219,-0.006 0.96453416,0.96453416 0 0 0 0.81063,0.51974 0.96453416,0.96453416 0 0 0 1.00789,-0.9197 0.96453416,0.96453416 0 0 0 -0.91971,-1.00737 0.96453416,0.96453416 0 0 0 -0.1622,0.006 0.96453416,0.96453416 0 0 0 -0.7473,-0.51322 0.96453416,0.96453416 0 0 0 -0.90611,-0.80708 0.96453416,0.96453416 0 0 0 -0.88378,0.49084 0.96453416,0.96453416 0 0 0 -0.0768,-0.008 0.96453416,0.96453416 0 0 0 -0.37461,0.0583 0.96453416,0.96453416 0 0 0 -0.77908,-0.46294 0.96453416,0.96453416 0 0 0 -0.95878,0.66018 0.96453416,0.96453416 0 0 0 -0.009,-9.3e-4 0.96453416,0.96453416 0 0 0 -1.00788,0.91969 0.96453416,0.96453416 0 0 0 0.91971,1.00737 0.96453416,0.96453416 0 0 0 0.53268,-0.13237 0.96453416,0.96453416 0 0 0 0.90301,0.78418 z"
           id="path1408"
           inkscape:connector-curvature="0" />
      </g>
      <g
         transform="translate(-18.1767,-13.537073)"
         id="g1534"
         style="stroke-width:2.02692652">
        <path
           sodipodi:nodetypes="cc"
           inkscape:connector-curvature="0"
           id="path1463"
           d="m 41.053797,529.21623 c -0.781242,1.00167 1.532662,1.83235 0.884493,3.60212"
           style="opacity:1;fill:none;fill-opacity:1;stroke:#7d6342;stroke-width:0.28917474;stroke-linecap:round;stroke-linejoin:miter;stroke-miterlimit:4;stroke-dasharray:none;stroke-dashoffset:0;stroke-opacity:1" />
        <path
           style="opacity:1;fill:#3c5337;fill-opacity:1;stroke:#3c5337;stroke-width:0.34700969;stroke-linecap:round;stroke-linejoin:round;stroke-miterlimit:4;stroke-dasharray:none;stroke-dashoffset:0;stroke-opacity:1"
           d="m 45.655897,527.20414 a 0.55042727,0.55042727 0 0 0 -0.271827,-0.49534 0.55042727,0.55042727 0 0 0 0.170862,-0.37782 0.55042727,0.55042727 0 0 0 -0.253098,-0.48344 0.55042727,0.55042727 0 0 0 0.0055,-0.0611 0.55042727,0.55042727 0 0 0 -0.0038,-0.0925 0.55042727,0.55042727 0 0 0 0.292766,-0.46503 0.55042727,0.55042727 0 0 0 -0.52959,-0.57082 0.55042727,0.55042727 0 0 0 -0.57051,0.52959 0.55042727,0.55042727 0 0 0 0.0038,0.0925 0.55042727,0.55042727 0 0 0 -0.289343,0.42886 0.55042727,0.55042727 0 0 0 -0.456288,0.52088 0.55042727,0.55042727 0 0 0 0.284273,0.50202 0.55042727,0.55042727 0 0 0 -0.0046,0.0438 0.55042727,0.55042727 0 0 0 0.03569,0.21349 0.55042727,0.55042727 0 0 0 -0.260506,0.44675 0.55042727,0.55042727 0 0 0 0.381254,0.54401 0.55042727,0.55042727 0 0 0 -4.61e-4,0.005 0.55042727,0.55042727 0 0 0 0.529578,0.57079 0.55042727,0.55042727 0 0 0 0.57051,-0.52958 0.55042727,0.55042727 0 0 0 -0.07801,-0.30334 0.55042727,0.55042727 0 0 0 0.443233,-0.519 z"
           id="path1519"
           inkscape:connector-curvature="0" />
        <path
           style="opacity:1;fill:#3c5337;fill-opacity:1;stroke:#3c5337;stroke-width:0.34700969;stroke-linecap:round;stroke-linejoin:round;stroke-miterlimit:4;stroke-dasharray:none;stroke-dashoffset:0;stroke-opacity:1"
           d="m 43.44524,526.64467 a 0.55042727,0.55042727 0 0 0 -0.271827,-0.49534 0.55042727,0.55042727 0 0 0 0.170862,-0.37782 0.55042727,0.55042727 0 0 0 -0.253098,-0.48344 0.55042727,0.55042727 0 0 0 0.0055,-0.0611 0.55042727,0.55042727 0 0 0 -0.0038,-0.0925 0.55042727,0.55042727 0 0 0 0.292766,-0.46503 0.55042727,0.55042727 0 0 0 -0.52959,-0.57082 0.55042727,0.55042727 0 0 0 -0.57051,0.52959 0.55042727,0.55042727 0 0 0 0.0038,0.0925 A 0.55042727,0.55042727 0 0 0 42,525.14957 a 0.55042727,0.55042727 0 0 0 -0.456288,0.52088 0.55042727,0.55042727 0 0 0 0.284273,0.50202 0.55042727,0.55042727 0 0 0 -0.0046,0.0438 0.55042727,0.55042727 0 0 0 0.03569,0.21349 0.55042727,0.55042727 0 0 0 -0.260506,0.44675 0.55042727,0.55042727 0 0 0 0.381254,0.54401 0.55042727,0.55042727 0 0 0 -4.61e-4,0.005 0.55042727,0.55042727 0 0 0 0.529578,0.57079 0.55042727,0.55042727 0 0 0 0.57051,-0.52958 0.55042727,0.55042727 0 0 0 -0.07801,-0.30334 0.55042727,0.55042727 0 0 0 0.443233,-0.519 z"
           id="path1523"
           inkscape:connector-curvature="0" />
        <path
           inkscape:connector-curvature="0"
           id="path1521"
           d="m 44.400688,527.8566 a 0.55042727,0.55042727 0 0 0 -0.271827,-0.49534 0.55042727,0.55042727 0 0 0 0.170862,-0.37782 0.55042727,0.55042727 0 0 0 -0.253098,-0.48344 0.55042727,0.55042727 0 0 0 0.0055,-0.0611 0.55042727,0.55042727 0 0 0 -0.0038,-0.0925 0.55042727,0.55042727 0 0 0 0.292766,-0.46503 0.55042727,0.55042727 0 0 0 -0.52959,-0.57082 0.55042727,0.55042727 0 0 0 -0.57051,0.52959 0.55042727,0.55042727 0 0 0 0.0038,0.0925 0.55042727,0.55042727 0 0 0 -0.289343,0.42886 0.55042727,0.55042727 0 0 0 -0.456288,0.52088 0.55042727,0.55042727 0 0 0 0.284273,0.50202 0.55042727,0.55042727 0 0 0 -0.0046,0.0438 0.55042727,0.55042727 0 0 0 0.03569,0.21349 0.55042727,0.55042727 0 0 0 -0.260506,0.44675 0.55042727,0.55042727 0 0 0 0.381254,0.54401 0.55042727,0.55042727 0 0 0 -4.61e-4,0.005 0.55042727,0.55042727 0 0 0 0.529578,0.57079 0.55042727,0.55042727 0 0 0 0.57051,-0.52958 0.55042727,0.55042727 0 0 0 -0.07801,-0.30334 0.55042727,0.55042727 0 0 0 0.443233,-0.519 z"
           style="opacity:1;fill:#3c5337;fill-opacity:1;stroke:#3c5337;stroke-width:0.34700969;stroke-linecap:round;stroke-linejoin:round;stroke-miterlimit:4;stroke-dasharray:none;stroke-dashoffset:0;stroke-opacity:1" />
        <path
           style="opacity:1;fill:none;fill-opacity:1;stroke:#7d6342;stroke-width:1.21615601;stroke-linecap:round;stroke-linejoin:miter;stroke-miterlimit:4;stroke-dasharray:none;stroke-dashoffset:0;stroke-opacity:1"
           d="m 43.685029,530.01143 c -1.098459,2.13994 -3.139625,3.12941 -2.428209,7.52229"
           id="path1453"
           inkscape:connector-curvature="0"
           sodipodi:nodetypes="cc" />
        <path
           id="path1461"
           d="m 38.63246,525.86549 a 0.92335763,0.57066643 0 0 1 0.922739,0.56296 0.90145808,0.55713179 0 0 1 0.447362,-0.074 0.90145808,0.55713179 0 0 1 0.901511,0.55707 0.90145808,0.55713179 0 0 1 -0.01358,0.0932 0.92335763,0.57066643 0 0 1 0.100854,-0.004 0.92335763,0.57066643 0 0 1 0.368918,0.048 0.92335763,0.57066643 0 0 1 0.901225,-0.44914 0.92335763,0.57066643 0 0 1 0.922739,0.56297 0.90145808,0.55713179 0 0 1 0.447363,-0.074 0.90145808,0.55713179 0 0 1 0.90151,0.55707 0.90145808,0.55713179 0 0 1 -0.291947,0.40962 0.92335763,0.57066643 0 0 1 0.292832,-0.0307 0.92335763,0.57066643 0 0 1 0.368919,0.048 0.92335763,0.57066643 0 0 1 0.901219,-0.44914 0.92335763,0.57066643 0 0 1 0.922739,0.56297 0.90145808,0.55713179 0 0 1 0.447362,-0.074 0.90145808,0.55713179 0 0 1 0.901511,0.55707 0.90145808,0.55713179 0 0 1 -0.462993,0.48658 0.92335763,0.57066643 0 0 1 0.01712,0.10764 0.92335763,0.57066643 0 0 1 -0.923339,0.57063 0.92335763,0.57066643 0 0 1 -0.802419,-0.2893 0.92335763,0.57066643 0 0 1 -0.567386,0.26984 0.92335763,0.57066643 0 0 1 -0.902988,0.45385 0.92335763,0.57066643 0 0 1 -0.896791,-0.43793 0.92335763,0.57066643 0 0 1 -0.816869,-0.48157 0.92335763,0.57066643 0 0 1 -0.558836,0.11737 0.92335763,0.57066643 0 0 1 -0.810683,-0.29844 0.92335763,0.57066643 0 0 1 -0.0985,0.0301 0.55042725,0.55042725 0 0 1 -0.548217,0.50044 0.55042725,0.55042725 0 0 1 -0.09231,-0.008 0.55042725,0.55042725 0 0 1 -0.439402,0.27308 0.55042725,0.55042725 0 0 1 -0.537602,0.43645 0.55042725,0.55042725 0 0 1 -0.491007,-0.30286 0.55042725,0.55042725 0 0 1 -0.04394,0.002 0.55042725,0.55042725 0 0 1 -0.212031,-0.0431 0.55042725,0.55042725 0 0 1 -0.455917,0.24358 0.55042725,0.55042725 0 0 1 -0.529641,-0.40135 0.55042725,0.55042725 0 0 1 -0.0051,3e-4 0.55042725,0.55042725 0 0 1 -0.217641,-0.0448 0.55042725,0.55042725 0 0 1 -0.317605,0.10145 0.55042725,0.55042725 0 0 1 -0.09231,-0.008 0.55042725,0.55042725 0 0 1 -0.439402,0.27337 0.55042725,0.55042725 0 0 1 -0.537602,0.43645 0.55042725,0.55042725 0 0 1 -0.491007,-0.30315 0.55042725,0.55042725 0 0 1 -0.04394,0.002 0.55042725,0.55042725 0 0 1 -0.212031,-0.0431 0.55042725,0.55042725 0 0 1 -0.456214,0.24358 0.55042725,0.55042725 0 0 1 -0.529344,-0.40136 0.55042725,0.55042725 0 0 1 -0.0051,3.1e-4 0.55042725,0.55042725 0 0 1 -0.550579,-0.55058 0.55042725,0.55042725 0 0 1 0.293425,-0.48629 0.92335763,0.57066643 0 0 1 -0.71779,-0.5556 0.92335763,0.57066643 0 0 1 0.923333,-0.57063 0.92335763,0.57066643 0 0 1 0.399295,0.0566 0.92335763,0.57066643 0 0 1 0.653202,-0.43586 0.92335763,0.57066643 0 0 1 -0.0074,-0.0233 0.92335763,0.57066643 0 0 1 -0.558836,0.11737 0.92335763,0.57066643 0 0 1 -0.923327,-0.57063 0.92335763,0.57066643 0 0 1 0.923327,-0.57064 0.92335763,0.57066643 0 0 1 0.399295,0.0566 0.92335763,0.57066643 0 0 1 0.904164,-0.45769 0.92335763,0.57066643 0 0 1 0.647307,0.16397 0.92335763,0.57066643 0 0 1 0.422002,-0.0637 0.92335763,0.57066643 0 0 1 0.368919,0.048 0.92335763,0.57066643 0 0 1 0.901213,-0.44914 z"
           style="opacity:1;fill:#e4ca98;fill-opacity:1;stroke:#3c5337;stroke-width:0.608078;stroke-linecap:round;stroke-linejoin:round;stroke-miterlimit:4;stroke-dasharray:none;stroke-dashoffset:0;stroke-opacity:1"
           inkscape:connector-curvature="0" />
        <path
           style="opacity:1;fill:none;fill-opacity:1;stroke:#7d6342;stroke-width:0.28917474;stroke-linecap:round;stroke-linejoin:miter;stroke-miterlimit:4;stroke-dasharray:none;stroke-dashoffset:0;stroke-opacity:1"
           d="m 39.784136,528.91237 c -0.716488,0.95311 -0.315339,2.35006 0.54066,3.56819"
           id="path1455"
           inkscape:connector-curvature="0"
           sodipodi:nodetypes="cc" />
        <path
           sodipodi:nodetypes="cc"
           inkscape:connector-curvature="0"
           id="path1457"
           d="m 37.845671,528.85827 c -0.556234,2.76168 3.753064,2.71076 3.284444,6.28691"
           style="opacity:1;fill:none;fill-opacity:1;stroke:#7d6342;stroke-width:0.43685874;stroke-linecap:round;stroke-linejoin:miter;stroke-miterlimit:4;stroke-dasharray:none;stroke-dashoffset:0;stroke-opacity:1" />
        <path
           inkscape:connector-curvature="0"
           id="path1469"
           d="m 37.870579,529.17949 a 0.55042727,0.55042727 0 0 0 0.49757,-0.26772 0.55042727,0.55042727 0 0 0 0.3764,0.17398 0.55042727,0.55042727 0 0 0 0.485512,-0.24909 0.55042727,0.55042727 0 0 0 0.06111,0.006 0.55042727,0.55042727 0 0 0 0.09256,-0.003 0.55042727,0.55042727 0 0 0 0.462599,0.2966 0.55042727,0.55042727 0 0 0 0.575169,-0.52485 0.55042727,0.55042727 0 0 0 -0.524847,-0.57487 0.55042727,0.55042727 0 0 0 -0.09256,0.003 0.55042727,0.55042727 0 0 0 -0.426459,-0.29288 0.55042727,0.55042727 0 0 0 -0.517086,-0.46058 0.55042727,0.55042727 0 0 0 -0.504344,0.28011 0.55042727,0.55042727 0 0 0 -0.04383,-0.005 0.55042727,0.55042727 0 0 0 -0.213778,0.0339 0.55042727,0.55042727 0 0 0 -0.444595,-0.26419 0.55042727,0.55042727 0 0 0 -0.547144,0.37674 0.55042727,0.55042727 0 0 0 -0.0051,-5.3e-4 0.55042727,0.55042727 0 0 0 -0.575163,0.52484 0.55042727,0.55042727 0 0 0 0.524848,0.57487 0.55042727,0.55042727 0 0 0 0.303982,-0.0755 0.55042727,0.55042727 0 0 0 0.515318,0.44751 z"
           style="opacity:1;fill:#3c5337;fill-opacity:1;stroke:#3c5337;stroke-width:0.34700969;stroke-linecap:round;stroke-linejoin:round;stroke-miterlimit:4;stroke-dasharray:none;stroke-dashoffset:0;stroke-opacity:1" />
      </g>
      <g
         transform="translate(-19.772595,-12.844544)"
         id="g1603"
         style="stroke-width:2.02692652">
        <path
           style="opacity:1;fill:none;fill-opacity:1;stroke:#7d6342;stroke-width:0.43685874;stroke-linecap:round;stroke-linejoin:miter;stroke-miterlimit:4;stroke-dasharray:none;stroke-dashoffset:0;stroke-opacity:1"
           d="m 71.772665,529.5 c 0.556234,2.76168 -3.224126,0.41744 -5.947372,2.84452"
           id="path1561"
           inkscape:connector-curvature="0"
           sodipodi:nodetypes="cc" />
        <path
           sodipodi:nodetypes="cc"
           inkscape:connector-curvature="0"
           id="path1559"
           d="m 67.116554,528.55577 c 1.589907,2.54805 -4.336568,3.94423 -1.433067,8.54288"
           style="opacity:1;fill:none;fill-opacity:1;stroke:#7d6342;stroke-width:1.21615601;stroke-linecap:round;stroke-linejoin:miter;stroke-miterlimit:4;stroke-dasharray:none;stroke-dashoffset:0;stroke-opacity:1" />
        <path
           style="opacity:1;fill:none;fill-opacity:1;stroke:#7d6342;stroke-width:0.28917474;stroke-linecap:round;stroke-linejoin:miter;stroke-miterlimit:4;stroke-dasharray:none;stroke-dashoffset:0;stroke-opacity:1"
           d="m 61.5,528.91659 c -0.585849,2.14091 3.953474,1.77539 3.38645,4.89326"
           id="path1547"
           inkscape:connector-curvature="0"
           sodipodi:nodetypes="cc" />
        <path
           inkscape:connector-curvature="0"
           id="path1549"
           d="m 61.263032,528.10605 a 0.55042727,0.55042727 0 0 1 0.271827,-0.49534 0.55042727,0.55042727 0 0 1 -0.170862,-0.37782 0.55042727,0.55042727 0 0 1 0.253098,-0.48344 0.55042727,0.55042727 0 0 1 -0.0055,-0.0611 0.55042727,0.55042727 0 0 1 0.0038,-0.0925 0.55042727,0.55042727 0 0 1 -0.292766,-0.46503 0.55042727,0.55042727 0 0 1 0.52959,-0.57082 0.55042727,0.55042727 0 0 1 0.57051,0.52959 0.55042727,0.55042727 0 0 1 -0.0038,0.0925 0.55042727,0.55042727 0 0 1 0.289343,0.42886 0.55042727,0.55042727 0 0 1 0.456288,0.52088 0.55042727,0.55042727 0 0 1 -0.284273,0.50202 0.55042727,0.55042727 0 0 1 0.0046,0.0438 0.55042727,0.55042727 0 0 1 -0.03569,0.21349 0.55042727,0.55042727 0 0 1 0.260506,0.44675 0.55042727,0.55042727 0 0 1 -0.381254,0.54401 0.55042727,0.55042727 0 0 1 4.61e-4,0.005 0.55042727,0.55042727 0 0 1 -0.529578,0.57079 0.55042727,0.55042727 0 0 1 -0.57051,-0.52958 0.55042727,0.55042727 0 0 1 0.07801,-0.30334 0.55042727,0.55042727 0 0 1 -0.443233,-0.519 z"
           style="opacity:1;fill:#3c5337;fill-opacity:1;stroke:#3c5337;stroke-width:0.34700969;stroke-linecap:round;stroke-linejoin:round;stroke-miterlimit:4;stroke-dasharray:none;stroke-dashoffset:0;stroke-opacity:1" />
        <path
           style="opacity:1;fill:none;fill-opacity:1;stroke:#7d6342;stroke-width:0.28917474;stroke-linecap:round;stroke-linejoin:miter;stroke-miterlimit:4;stroke-dasharray:none;stroke-dashoffset:0;stroke-opacity:1"
           d="m 64.5,528.86458 c 0.458815,1.74755 -1.343288,1.06591 -0.389888,2.75615"
           id="path1592"
           inkscape:connector-curvature="0"
           sodipodi:nodetypes="cc" />
        <path
           sodipodi:nodetypes="cc"
           inkscape:connector-curvature="0"
           id="path1590"
           d="m 63.208864,529 c -0.256973,1.20587 0.255951,2.10413 0.480665,2.3112"
           style="opacity:1;fill:none;fill-opacity:1;stroke:#7d6342;stroke-width:0.28917474;stroke-linecap:round;stroke-linejoin:miter;stroke-miterlimit:4;stroke-dasharray:none;stroke-dashoffset:0;stroke-opacity:1" />
        <path
           style="opacity:1;fill:#3c5337;fill-opacity:1;stroke:#3c5337;stroke-width:0.34700969;stroke-linecap:round;stroke-linejoin:round;stroke-miterlimit:4;stroke-dasharray:none;stroke-dashoffset:0;stroke-opacity:1"
           d="m 70.105763,527.11698 a 0.55042727,0.55042727 0 0 1 0.271827,-0.49534 0.55042727,0.55042727 0 0 1 -0.170862,-0.37782 0.55042727,0.55042727 0 0 1 0.253098,-0.48344 0.55042727,0.55042727 0 0 1 -0.0055,-0.0611 0.55042727,0.55042727 0 0 1 0.0038,-0.0925 0.55042727,0.55042727 0 0 1 -0.292766,-0.46503 0.55042727,0.55042727 0 0 1 0.52959,-0.57082 0.55042727,0.55042727 0 0 1 0.57051,0.52959 0.55042727,0.55042727 0 0 1 -0.0038,0.0925 0.55042727,0.55042727 0 0 1 0.289343,0.42886 0.55042727,0.55042727 0 0 1 0.456288,0.52088 0.55042727,0.55042727 0 0 1 -0.284273,0.50202 0.55042727,0.55042727 0 0 1 0.0046,0.0438 0.55042727,0.55042727 0 0 1 -0.03569,0.21349 0.55042727,0.55042727 0 0 1 0.260506,0.44675 0.55042727,0.55042727 0 0 1 -0.381254,0.54401 0.55042727,0.55042727 0 0 1 4.61e-4,0.005 0.55042727,0.55042727 0 0 1 -0.529578,0.57079 0.55042727,0.55042727 0 0 1 -0.57051,-0.52958 0.55042727,0.55042727 0 0 1 0.07801,-0.30334 0.55042727,0.55042727 0 0 1 -0.443233,-0.519 z"
           id="path1553"
           inkscape:connector-curvature="0" />
        <path
           inkscape:connector-curvature="0"
           style="opacity:1;fill:#e4ca98;fill-opacity:1;stroke:#3c5337;stroke-width:0.608078;stroke-linecap:round;stroke-linejoin:round;stroke-miterlimit:4;stroke-dasharray:none;stroke-dashoffset:0;stroke-opacity:1"
           d="m 68.26823,525.50889 a 0.92335763,0.57066643 0 0 0 -0.922739,0.56296 0.90145808,0.55713179 0 0 0 -0.447362,-0.074 0.90145808,0.55713179 0 0 0 -0.901511,0.55707 0.90145808,0.55713179 0 0 0 0.01358,0.0932 0.92335763,0.57066643 0 0 0 -0.100854,-0.004 0.92335763,0.57066643 0 0 0 -0.368918,0.048 0.92335763,0.57066643 0 0 0 -0.901225,-0.44914 0.92335763,0.57066643 0 0 0 -0.922739,0.56297 0.90145808,0.55713179 0 0 0 -0.447363,-0.074 0.90145808,0.55713179 0 0 0 -0.90151,0.55707 0.90145808,0.55713179 0 0 0 0.291947,0.40962 0.92335763,0.57066643 0 0 0 -0.292832,-0.0307 0.92335763,0.57066643 0 0 0 -0.368919,0.048 0.92335763,0.57066643 0 0 0 -0.901219,-0.44914 0.92335763,0.57066643 0 0 0 -0.922739,0.56297 0.90145808,0.55713179 0 0 0 -0.447362,-0.074 0.90145808,0.55713179 0 0 0 -0.901511,0.55707 0.90145808,0.55713179 0 0 0 0.462993,0.48658 0.92335763,0.57066643 0 0 0 -0.01712,0.10764 0.92335763,0.57066643 0 0 0 0.923339,0.57063 0.92335763,0.57066643 0 0 0 0.802419,-0.2893 0.92335763,0.57066643 0 0 0 0.567386,0.26984 0.92335763,0.57066643 0 0 0 0.902988,0.45385 0.92335763,0.57066643 0 0 0 0.896791,-0.43793 0.92335763,0.57066643 0 0 0 0.816869,-0.48157 0.92335763,0.57066643 0 0 0 0.558836,0.11737 0.92335763,0.57066643 0 0 0 0.810683,-0.29844 0.92335763,0.57066643 0 0 0 0.0985,0.0301 0.55042725,0.55042725 0 0 0 0.548217,0.50044 0.55042725,0.55042725 0 0 0 0.09231,-0.008 0.55042725,0.55042725 0 0 0 0.439402,0.27308 0.55042725,0.55042725 0 0 0 0.537602,0.43645 0.55042725,0.55042725 0 0 0 0.491007,-0.30286 0.55042725,0.55042725 0 0 0 0.04394,0.002 0.55042725,0.55042725 0 0 0 0.212031,-0.0431 0.55042725,0.55042725 0 0 0 0.455917,0.24358 0.55042725,0.55042725 0 0 0 0.529641,-0.40135 0.55042725,0.55042725 0 0 0 0.0051,3e-4 0.55042725,0.55042725 0 0 0 0.217641,-0.0448 0.55042725,0.55042725 0 0 0 0.317605,0.10145 0.55042725,0.55042725 0 0 0 0.09231,-0.008 0.55042725,0.55042725 0 0 0 0.439402,0.27337 0.55042725,0.55042725 0 0 0 0.537602,0.43645 0.55042725,0.55042725 0 0 0 0.491007,-0.30315 0.55042725,0.55042725 0 0 0 0.04394,0.002 0.55042725,0.55042725 0 0 0 0.212031,-0.0431 0.55042725,0.55042725 0 0 0 0.456214,0.24358 0.55042725,0.55042725 0 0 0 0.529344,-0.40136 0.55042725,0.55042725 0 0 0 0.0051,3.1e-4 0.55042725,0.55042725 0 0 0 0.550579,-0.55058 0.55042725,0.55042725 0 0 0 -0.293425,-0.48629 0.92335763,0.57066643 0 0 0 0.71779,-0.5556 0.92335763,0.57066643 0 0 0 -0.923333,-0.57063 0.92335763,0.57066643 0 0 0 -0.399295,0.0566 0.92335763,0.57066643 0 0 0 -0.653202,-0.43586 0.92335763,0.57066643 0 0 0 0.0074,-0.0233 0.92335763,0.57066643 0 0 0 0.558836,0.11737 0.92335763,0.57066643 0 0 0 0.923327,-0.57063 0.92335763,0.57066643 0 0 0 -0.923327,-0.57064 0.92335763,0.57066643 0 0 0 -0.399295,0.0566 0.92335763,0.57066643 0 0 0 -0.904164,-0.45769 0.92335763,0.57066643 0 0 0 -0.647307,0.16397 0.92335763,0.57066643 0 0 0 -0.422002,-0.0637 0.92335763,0.57066643 0 0 0 -0.368919,0.048 0.92335763,0.57066643 0 0 0 -0.901213,-0.44914 z"
           id="path1557" />
        <path
           style="opacity:1;fill:#3c5337;fill-opacity:1;stroke:#3c5337;stroke-width:0.34700969;stroke-linecap:round;stroke-linejoin:round;stroke-miterlimit:4;stroke-dasharray:none;stroke-dashoffset:0;stroke-opacity:1"
           d="m 68.764977,528.71345 a 0.55042727,0.55042727 0 0 1 -0.49757,-0.26772 0.55042727,0.55042727 0 0 1 -0.3764,0.17398 0.55042727,0.55042727 0 0 1 -0.485512,-0.24909 0.55042727,0.55042727 0 0 1 -0.06111,0.006 0.55042727,0.55042727 0 0 1 -0.09256,-0.003 0.55042727,0.55042727 0 0 1 -0.462599,0.2966 0.55042727,0.55042727 0 0 1 -0.575169,-0.52485 0.55042727,0.55042727 0 0 1 0.524847,-0.57487 0.55042727,0.55042727 0 0 1 0.09256,0.003 0.55042727,0.55042727 0 0 1 0.426459,-0.29288 0.55042727,0.55042727 0 0 1 0.517086,-0.46058 0.55042727,0.55042727 0 0 1 0.504344,0.28011 0.55042727,0.55042727 0 0 1 0.04383,-0.005 0.55042727,0.55042727 0 0 1 0.213778,0.0339 0.55042727,0.55042727 0 0 1 0.444595,-0.26419 0.55042727,0.55042727 0 0 1 0.547144,0.37674 0.55042727,0.55042727 0 0 1 0.0051,-5.3e-4 0.55042727,0.55042727 0 0 1 0.575163,0.52484 0.55042727,0.55042727 0 0 1 -0.524848,0.57487 0.55042727,0.55042727 0 0 1 -0.303982,-0.0755 0.55042727,0.55042727 0 0 1 -0.515318,0.44751 z"
           id="path1563"
           inkscape:connector-curvature="0" />
      </g>
    </g>
  </g>
</svg>
