<?xml version="1.0" encoding="UTF-8" standalone="no"?>
<!-- Created with Inkscape (http://www.inkscape.org/) -->

<svg
   xmlns:dc="http://purl.org/dc/elements/1.1/"
   xmlns:cc="http://creativecommons.org/ns#"
   xmlns:rdf="http://www.w3.org/1999/02/22-rdf-syntax-ns#"
   xmlns:svg="http://www.w3.org/2000/svg"
   xmlns="http://www.w3.org/2000/svg"
   xmlns:sodipodi="http://sodipodi.sourceforge.net/DTD/sodipodi-0.dtd"
   xmlns:inkscape="http://www.inkscape.org/namespaces/inkscape"
   width="210mm"
   height="297mm"
   viewBox="0 0 210 297"
   version="1.1"
   id="svg3994"
   inkscape:version="0.92.3 (2405546, 2018-03-11)"
   sodipodi:docname="gebirge_3.svg">
  <defs
     id="defs3988" />
  <sodipodi:namedview
     id="base"
     pagecolor="#ffffff"
     bordercolor="#666666"
     borderopacity="1.0"
     inkscape:pageopacity="0.0"
     inkscape:pageshadow="2"
     inkscape:zoom="1.8722488"
     inkscape:cx="35.357143"
     inkscape:cy="-5.3571429"
     inkscape:document-units="mm"
     inkscape:current-layer="layer1"
     showgrid="false"
     inkscape:window-width="2560"
     inkscape:window-height="1395"
     inkscape:window-x="-13"
     inkscape:window-y="-13"
     inkscape:window-maximized="1" />
  <metadata
     id="metadata3991">
    <rdf:RDF>
      <cc:Work
         rdf:about="">
        <dc:format>image/svg+xml</dc:format>
        <dc:type
           rdf:resource="http://purl.org/dc/dcmitype/StillImage" />
        <dc:title />
      </cc:Work>
    </rdf:RDF>
  </metadata>
  <g
     inkscape:label="Layer 1"
     inkscape:groupmode="layer"
     id="layer1">
    <g
       style="display:inline;fill:#e77b3f;fill-opacity:1"
       id="g12727"
       transform="translate(-157.38552,9.4669175)">
      <path
         sodipodi:nodetypes="ccccccc"
         style="fill:#e77b3f;fill-opacity:1;stroke:none;stroke-width:0.22516675;stroke-linecap:butt;stroke-linejoin:miter;stroke-miterlimit:4;stroke-dasharray:none;stroke-opacity:1"
         d="m 156.06622,290.94213 c 0.55116,-0.12159 0.78075,-0.67447 0.85418,-1.18063 -0.0146,-0.46755 0.20148,-0.90652 0.18924,-1.37635 0.0695,-0.59489 0.19935,-1.31107 0.80119,-1.59375 0.34512,-0.21479 0.65589,-0.72938 1.0638,-0.33002 0.36017,0.17331 0.77378,0.074 1.15881,0.0945 0.48687,3.12055 -1.94582,4.91996 -4.06722,4.38622"
         id="path12709"
         inkscape:connector-curvature="0" />
      <path
         inkscape:connector-curvature="0"
         id="path12711"
         d="m 154.65116,292.8897 c 0.42187,-0.0649 1.1272,-0.13245 1.0922,-0.70931 0.0534,-0.41 0.0523,-0.90871 0.31493,-1.24188 0.55116,-0.12159 0.78075,-0.67447 0.85417,-1.18063 -0.0146,-0.46755 0.20149,-0.90652 0.18925,-1.37635 0.0695,-0.59488 0.19934,-1.31107 0.80118,-1.59375 0.34513,-0.21479 0.65589,-0.72938 1.06381,-0.33002 0.36017,0.17331 0.77378,0.074 1.15881,0.0945 0.3332,0.0332 0.51837,-0.53834 0.85683,-0.16284 0.34796,0.3 0.90052,0.26079 1.18653,0.60831 0.28266,0.40401 0.13748,0.9515 0.40203,1.33919 0.31369,0.3052 0.456,0.79705 0.19574,1.18186 -0.17811,0.3934 -0.33552,0.91879 -0.0324,1.28973 0.22429,0.47101 0.0908,1.07177 0.42886,1.50794 0.39246,0.28858 0.70158,0.56771 0.91168,1.01122 0.28327,0.19505 0.42032,0.55328 0.75058,0.67968"
         style="fill:#e77b3f;fill-opacity:1;stroke:#7d6342;stroke-width:0.22516675;stroke-linecap:round;stroke-linejoin:miter;stroke-miterlimit:4;stroke-dasharray:none;stroke-opacity:1" />
      <path
         sodipodi:nodetypes="cc"
         inkscape:connector-curvature="0"
         id="path12713"
         d="m 158,286.78284 1.36819,0.45089"
         style="opacity:1;fill:#e77b3f;fill-opacity:1;stroke:#7d6342;stroke-width:0.11258338;stroke-linecap:round;stroke-linejoin:round;stroke-miterlimit:4;stroke-dasharray:none;stroke-dashoffset:0;stroke-opacity:1" />
      <path
         style="opacity:1;fill:#e77b3f;fill-opacity:1;stroke:#7d6342;stroke-width:0.11258338;stroke-linecap:round;stroke-linejoin:round;stroke-miterlimit:4;stroke-dasharray:none;stroke-dashoffset:0;stroke-opacity:1"
         d="m 157.61131,287.14044 1.9901,0.69965"
         id="path12715"
         inkscape:connector-curvature="0" />
      <path
         sodipodi:nodetypes="cc"
         inkscape:connector-curvature="0"
         id="path12717"
         d="m 157.37809,287.59201 2.44099,0.85513"
         style="opacity:1;fill:#e77b3f;fill-opacity:1;stroke:#7d6342;stroke-width:0.11258338;stroke-linecap:round;stroke-linejoin:round;stroke-miterlimit:4;stroke-dasharray:none;stroke-dashoffset:0;stroke-opacity:1" />
      <path
         sodipodi:nodetypes="cc"
         style="opacity:1;fill:#e77b3f;fill-opacity:1;stroke:#7d6342;stroke-width:0.11258338;stroke-linecap:round;stroke-linejoin:round;stroke-miterlimit:4;stroke-dasharray:none;stroke-dashoffset:0;stroke-opacity:1"
         d="m 157.23816,288.08954 2.13003,0.76184"
         id="path12719"
         inkscape:connector-curvature="0" />
      <path
         inkscape:connector-curvature="0"
         id="path12721"
         d="m 157.09824,288.6337 1.9901,0.69965"
         style="opacity:1;fill:#e77b3f;fill-opacity:1;stroke:#7d6342;stroke-width:0.11258338;stroke-linecap:round;stroke-linejoin:round;stroke-miterlimit:4;stroke-dasharray:none;stroke-dashoffset:0;stroke-opacity:1" />
      <path
         sodipodi:nodetypes="cc"
         style="opacity:1;fill:#e77b3f;fill-opacity:1;stroke:#7d6342;stroke-width:0.11258338;stroke-linecap:round;stroke-linejoin:round;stroke-miterlimit:4;stroke-dasharray:none;stroke-dashoffset:0;stroke-opacity:1"
         d="m 157.05159,289.24006 1.43039,0.45089"
         id="path12723"
         inkscape:connector-curvature="0" />
      <path
         sodipodi:nodetypes="cc"
         inkscape:connector-curvature="0"
         id="path12725"
         d="m 156.94833,289.72205 0.87066,0.31095"
         style="opacity:1;fill:#e77b3f;fill-opacity:1;stroke:#7d6342;stroke-width:0.11258338;stroke-linecap:round;stroke-linejoin:round;stroke-miterlimit:4;stroke-dasharray:none;stroke-dashoffset:0;stroke-opacity:1" />
    </g>
    <g
       transform="translate(-163.12254,4.7929175)"
       id="g12707"
       style="display:inline;fill:#e77b3f;fill-opacity:1">
      <path
         inkscape:connector-curvature="0"
         id="path12689"
         d="m 156.06622,290.94213 c 0.55116,-0.12159 0.78075,-0.67447 0.85418,-1.18063 -0.0146,-0.46755 0.20148,-0.90652 0.18924,-1.37635 0.0695,-0.59489 0.19935,-1.31107 0.80119,-1.59375 0.34512,-0.21479 0.65589,-0.72938 1.0638,-0.33002 0.36017,0.17331 0.77378,0.074 1.15881,0.0945 0.48687,3.12055 -1.94582,4.91996 -4.06722,4.38622"
         style="fill:#e77b3f;fill-opacity:1;stroke:none;stroke-width:0.22516675;stroke-linecap:butt;stroke-linejoin:miter;stroke-miterlimit:4;stroke-dasharray:none;stroke-opacity:1"
         sodipodi:nodetypes="ccccccc" />
      <path
         style="fill:#e77b3f;fill-opacity:1;stroke:#7d6342;stroke-width:0.22516675;stroke-linecap:round;stroke-linejoin:miter;stroke-miterlimit:4;stroke-dasharray:none;stroke-opacity:1"
         d="m 154.65116,292.8897 c 0.42187,-0.0649 1.1272,-0.13245 1.0922,-0.70931 0.0534,-0.41 0.0523,-0.90871 0.31493,-1.24188 0.55116,-0.12159 0.78075,-0.67447 0.85417,-1.18063 -0.0146,-0.46755 0.20149,-0.90652 0.18925,-1.37635 0.0695,-0.59488 0.19934,-1.31107 0.80118,-1.59375 0.34513,-0.21479 0.65589,-0.72938 1.06381,-0.33002 0.36017,0.17331 0.77378,0.074 1.15881,0.0945 0.3332,0.0332 0.51837,-0.53834 0.85683,-0.16284 0.34796,0.3 0.90052,0.26079 1.18653,0.60831 0.28266,0.40401 0.13748,0.9515 0.40203,1.33919 0.31369,0.3052 0.456,0.79705 0.19574,1.18186 -0.17811,0.3934 -0.33552,0.91879 -0.0324,1.28973 0.22429,0.47101 0.0908,1.07177 0.42886,1.50794 0.39246,0.28858 0.70158,0.56771 0.91168,1.01122 0.28327,0.19505 0.42032,0.55328 0.75058,0.67968"
         id="path12691"
         inkscape:connector-curvature="0" />
      <path
         style="opacity:1;fill:#e77b3f;fill-opacity:1;stroke:#7d6342;stroke-width:0.11258338;stroke-linecap:round;stroke-linejoin:round;stroke-miterlimit:4;stroke-dasharray:none;stroke-dashoffset:0;stroke-opacity:1"
         d="m 158,286.78284 1.36819,0.45089"
         id="path12693"
         inkscape:connector-curvature="0"
         sodipodi:nodetypes="cc" />
      <path
         inkscape:connector-curvature="0"
         id="path12695"
         d="m 157.61131,287.14044 1.9901,0.69965"
         style="opacity:1;fill:#e77b3f;fill-opacity:1;stroke:#7d6342;stroke-width:0.11258338;stroke-linecap:round;stroke-linejoin:round;stroke-miterlimit:4;stroke-dasharray:none;stroke-dashoffset:0;stroke-opacity:1" />
      <path
         style="opacity:1;fill:#e77b3f;fill-opacity:1;stroke:#7d6342;stroke-width:0.11258338;stroke-linecap:round;stroke-linejoin:round;stroke-miterlimit:4;stroke-dasharray:none;stroke-dashoffset:0;stroke-opacity:1"
         d="m 157.37809,287.59201 2.44099,0.85513"
         id="path12697"
         inkscape:connector-curvature="0"
         sodipodi:nodetypes="cc" />
      <path
         inkscape:connector-curvature="0"
         id="path12699"
         d="m 157.23816,288.08954 2.13003,0.76184"
         style="opacity:1;fill:#e77b3f;fill-opacity:1;stroke:#7d6342;stroke-width:0.11258338;stroke-linecap:round;stroke-linejoin:round;stroke-miterlimit:4;stroke-dasharray:none;stroke-dashoffset:0;stroke-opacity:1"
         sodipodi:nodetypes="cc" />
      <path
         style="opacity:1;fill:#e77b3f;fill-opacity:1;stroke:#7d6342;stroke-width:0.11258338;stroke-linecap:round;stroke-linejoin:round;stroke-miterlimit:4;stroke-dasharray:none;stroke-dashoffset:0;stroke-opacity:1"
         d="m 157.09824,288.6337 1.9901,0.69965"
         id="path12701"
         inkscape:connector-curvature="0" />
      <path
         inkscape:connector-curvature="0"
         id="path12703"
         d="m 157.05159,289.24006 1.43039,0.45089"
         style="opacity:1;fill:#e77b3f;fill-opacity:1;stroke:#7d6342;stroke-width:0.11258338;stroke-linecap:round;stroke-linejoin:round;stroke-miterlimit:4;stroke-dasharray:none;stroke-dashoffset:0;stroke-opacity:1"
         sodipodi:nodetypes="cc" />
      <path
         style="opacity:1;fill:#e77b3f;fill-opacity:1;stroke:#7d6342;stroke-width:0.11258338;stroke-linecap:round;stroke-linejoin:round;stroke-miterlimit:4;stroke-dasharray:none;stroke-dashoffset:0;stroke-opacity:1"
         d="m 156.94833,289.72205 0.87066,0.31095"
         id="path12705"
         inkscape:connector-curvature="0"
         sodipodi:nodetypes="cc" />
    </g>
    <g
       style="display:inline;fill:#e77b3f;fill-opacity:1"
       id="g5707"
       transform="translate(-156.09926,2.1313075)">
      <path
         sodipodi:nodetypes="ccccccc"
         style="fill:#e77b3f;fill-opacity:1;stroke:none;stroke-width:0.22516675;stroke-linecap:butt;stroke-linejoin:miter;stroke-miterlimit:4;stroke-dasharray:none;stroke-opacity:1"
         d="m 156.06622,290.94213 c 0.55116,-0.12159 0.78075,-0.67447 0.85418,-1.18063 -0.0146,-0.46755 0.20148,-0.90652 0.18924,-1.37635 0.0695,-0.59489 0.19935,-1.31107 0.80119,-1.59375 0.34512,-0.21479 0.65589,-0.72938 1.0638,-0.33002 0.36017,0.17331 0.77378,0.074 1.15881,0.0945 0.48687,3.12055 -1.94582,4.91996 -4.06722,4.38622"
         id="path5689"
         inkscape:connector-curvature="0" />
      <path
         inkscape:connector-curvature="0"
         id="path5691"
         d="m 154.65116,292.8897 c 0.42187,-0.0649 1.1272,-0.13245 1.0922,-0.70931 0.0534,-0.41 0.0523,-0.90871 0.31493,-1.24188 0.55116,-0.12159 0.78075,-0.67447 0.85417,-1.18063 -0.0146,-0.46755 0.20149,-0.90652 0.18925,-1.37635 0.0695,-0.59488 0.19934,-1.31107 0.80118,-1.59375 0.34513,-0.21479 0.65589,-0.72938 1.06381,-0.33002 0.36017,0.17331 0.77378,0.074 1.15881,0.0945 0.3332,0.0332 0.51837,-0.53834 0.85683,-0.16284 0.34796,0.3 0.90052,0.26079 1.18653,0.60831 0.28266,0.40401 0.13748,0.9515 0.40203,1.33919 0.31369,0.3052 0.456,0.79705 0.19574,1.18186 -0.17811,0.3934 -0.33552,0.91879 -0.0324,1.28973 0.22429,0.47101 0.0908,1.07177 0.42886,1.50794 0.39246,0.28858 0.70158,0.56771 0.91168,1.01122 0.28327,0.19505 0.42032,0.55328 0.75058,0.67968"
         style="fill:#e77b3f;fill-opacity:1;stroke:#7d6342;stroke-width:0.22516675;stroke-linecap:round;stroke-linejoin:miter;stroke-miterlimit:4;stroke-dasharray:none;stroke-opacity:1" />
      <path
         sodipodi:nodetypes="cc"
         inkscape:connector-curvature="0"
         id="path5693"
         d="m 158,286.78284 1.36819,0.45089"
         style="opacity:1;fill:#e77b3f;fill-opacity:1;stroke:#7d6342;stroke-width:0.11258338;stroke-linecap:round;stroke-linejoin:round;stroke-miterlimit:4;stroke-dasharray:none;stroke-dashoffset:0;stroke-opacity:1" />
      <path
         style="opacity:1;fill:#e77b3f;fill-opacity:1;stroke:#7d6342;stroke-width:0.11258338;stroke-linecap:round;stroke-linejoin:round;stroke-miterlimit:4;stroke-dasharray:none;stroke-dashoffset:0;stroke-opacity:1"
         d="m 157.61131,287.14044 1.9901,0.69965"
         id="path5695"
         inkscape:connector-curvature="0" />
      <path
         sodipodi:nodetypes="cc"
         inkscape:connector-curvature="0"
         id="path5697"
         d="m 157.37809,287.59201 2.44099,0.85513"
         style="opacity:1;fill:#e77b3f;fill-opacity:1;stroke:#7d6342;stroke-width:0.11258338;stroke-linecap:round;stroke-linejoin:round;stroke-miterlimit:4;stroke-dasharray:none;stroke-dashoffset:0;stroke-opacity:1" />
      <path
         sodipodi:nodetypes="cc"
         style="opacity:1;fill:#e77b3f;fill-opacity:1;stroke:#7d6342;stroke-width:0.11258338;stroke-linecap:round;stroke-linejoin:round;stroke-miterlimit:4;stroke-dasharray:none;stroke-dashoffset:0;stroke-opacity:1"
         d="m 157.23816,288.08954 2.13003,0.76184"
         id="path5699"
         inkscape:connector-curvature="0" />
      <path
         inkscape:connector-curvature="0"
         id="path5701"
         d="m 157.09824,288.6337 1.9901,0.69965"
         style="opacity:1;fill:#e77b3f;fill-opacity:1;stroke:#7d6342;stroke-width:0.11258338;stroke-linecap:round;stroke-linejoin:round;stroke-miterlimit:4;stroke-dasharray:none;stroke-dashoffset:0;stroke-opacity:1" />
      <path
         sodipodi:nodetypes="cc"
         style="opacity:1;fill:#e77b3f;fill-opacity:1;stroke:#7d6342;stroke-width:0.11258338;stroke-linecap:round;stroke-linejoin:round;stroke-miterlimit:4;stroke-dasharray:none;stroke-dashoffset:0;stroke-opacity:1"
         d="m 157.05159,289.24006 1.43039,0.45089"
         id="path5703"
         inkscape:connector-curvature="0" />
      <path
         sodipodi:nodetypes="cc"
         inkscape:connector-curvature="0"
         id="path5705"
         d="m 156.94833,289.72205 0.87066,0.31095"
         style="opacity:1;fill:#e77b3f;fill-opacity:1;stroke:#7d6342;stroke-width:0.11258338;stroke-linecap:round;stroke-linejoin:round;stroke-miterlimit:4;stroke-dasharray:none;stroke-dashoffset:0;stroke-opacity:1" />
    </g>
    <g
       id="g7092"
       transform="rotate(0.70519705,-17250.88,-16456.857)"
       style="display:inline">
      <circle
         r="4.3129082"
         cy="82.465179"
         cx="205.07216"
         id="circle7086"
         style="display:inline;opacity:1;fill:#fcefb1;fill-opacity:1;stroke:#000000;stroke-width:0.49388888;stroke-linecap:butt;stroke-linejoin:miter;stroke-miterlimit:4;stroke-dasharray:0.98777784, 0.98777784;stroke-dashoffset:0;stroke-opacity:1" />
      <text
         xml:space="preserve"
         style="font-style:normal;font-variant:normal;font-weight:normal;font-stretch:extra-condensed;font-size:8.46666622px;line-height:0%;font-family:Algerian;-inkscape-font-specification:'Algerian, Extra-Condensed';font-variant-ligatures:normal;font-variant-caps:normal;font-variant-numeric:normal;font-feature-settings:normal;text-align:start;letter-spacing:0px;word-spacing:0px;writing-mode:lr-tb;text-anchor:start;display:inline;opacity:1;fill:#000000;fill-opacity:1;stroke:none;stroke-width:0.26458332"
         x="202.63112"
         y="85.396378"
         id="text7090"><tspan
           sodipodi:role="line"
           id="tspan7088"
           x="202.63112"
           y="85.396378"
           style="font-style:normal;font-variant:normal;font-weight:normal;font-stretch:extra-condensed;font-size:8.46666622px;line-height:1.25;font-family:Algerian;-inkscape-font-specification:'Algerian, Extra-Condensed';font-variant-ligatures:normal;font-variant-caps:normal;font-variant-numeric:normal;font-feature-settings:normal;text-align:start;writing-mode:lr-tb;text-anchor:start;stroke-width:0.26458332">3</tspan></text>
    </g>
  </g>
</svg>
