<?xml version="1.0" encoding="UTF-8" standalone="no"?>
<!-- Created with Inkscape (http://www.inkscape.org/) -->

<svg
   xmlns:dc="http://purl.org/dc/elements/1.1/"
   xmlns:cc="http://creativecommons.org/ns#"
   xmlns:rdf="http://www.w3.org/1999/02/22-rdf-syntax-ns#"
   xmlns:svg="http://www.w3.org/2000/svg"
   xmlns="http://www.w3.org/2000/svg"
   xmlns:sodipodi="http://sodipodi.sourceforge.net/DTD/sodipodi-0.dtd"
   xmlns:inkscape="http://www.inkscape.org/namespaces/inkscape"
   width="210mm"
   height="297mm"
   viewBox="0 0 210 297"
   version="1.1"
   id="svg3994"
   inkscape:version="0.92.3 (2405546, 2018-03-11)"
   sodipodi:docname="honig.svg">
  <defs
     id="defs3988">
    <marker
       inkscape:stockid="Arrow1Mend"
       orient="auto"
       refY="0"
       refX="0"
       id="marker4431"
       style="overflow:visible"
       inkscape:isstock="true">
      <path
         id="path4433"
         d="M 0,0 5,-5 -12.5,0 5,5 Z"
         style="fill:#000000;fill-opacity:1;fill-rule:evenodd;stroke:#000000;stroke-width:1.00000003pt;stroke-opacity:1"
         transform="matrix(-0.4,0,0,-0.4,-4,0)"
         inkscape:connector-curvature="0" />
    </marker>
    <marker
       inkscape:isstock="true"
       style="overflow:visible"
       id="marker4540"
       refX="0"
       refY="0"
       orient="auto"
       inkscape:stockid="Arrow1Mend">
      <path
         transform="matrix(-0.4,0,0,-0.4,-4,0)"
         style="fill:#000000;fill-opacity:1;fill-rule:evenodd;stroke:#000000;stroke-width:1.00000003pt;stroke-opacity:1"
         d="M 0,0 5,-5 -12.5,0 5,5 Z"
         id="path4542"
         inkscape:connector-curvature="0" />
    </marker>
    <marker
       inkscape:isstock="true"
       style="overflow:visible"
       id="marker4661"
       refX="0"
       refY="0"
       orient="auto"
       inkscape:stockid="Arrow1Mend">
      <path
         transform="matrix(-0.4,0,0,-0.4,-4,0)"
         style="fill:#000000;fill-opacity:1;fill-rule:evenodd;stroke:#000000;stroke-width:1.00000003pt;stroke-opacity:1"
         d="M 0,0 5,-5 -12.5,0 5,5 Z"
         id="path4663"
         inkscape:connector-curvature="0" />
    </marker>
    <marker
       inkscape:isstock="true"
       style="overflow:visible"
       id="marker4788"
       refX="0"
       refY="0"
       orient="auto"
       inkscape:stockid="Arrow1Mend">
      <path
         transform="matrix(-0.4,0,0,-0.4,-4,0)"
         style="fill:#000000;fill-opacity:1;fill-rule:evenodd;stroke:#000000;stroke-width:1.00000003pt;stroke-opacity:1"
         d="M 0,0 5,-5 -12.5,0 5,5 Z"
         id="path4790"
         inkscape:connector-curvature="0" />
    </marker>
    <marker
       inkscape:isstock="true"
       style="overflow:visible"
       id="marker4921"
       refX="0"
       refY="0"
       orient="auto"
       inkscape:stockid="Arrow1Mend">
      <path
         transform="matrix(-0.4,0,0,-0.4,-4,0)"
         style="fill:#000000;fill-opacity:1;fill-rule:evenodd;stroke:#000000;stroke-width:1.00000003pt;stroke-opacity:1"
         d="M 0,0 5,-5 -12.5,0 5,5 Z"
         id="path4923"
         inkscape:connector-curvature="0" />
    </marker>
    <marker
       inkscape:isstock="true"
       style="overflow:visible"
       id="marker5060"
       refX="0"
       refY="0"
       orient="auto"
       inkscape:stockid="Arrow1Mend">
      <path
         transform="matrix(-0.4,0,0,-0.4,-4,0)"
         style="fill:#000000;fill-opacity:1;fill-rule:evenodd;stroke:#000000;stroke-width:1.00000003pt;stroke-opacity:1"
         d="M 0,0 5,-5 -12.5,0 5,5 Z"
         id="path5062"
         inkscape:connector-curvature="0" />
    </marker>
  </defs>
  <sodipodi:namedview
     id="base"
     pagecolor="#ffffff"
     bordercolor="#666666"
     borderopacity="1.0"
     inkscape:pageopacity="0.0"
     inkscape:pageshadow="2"
     inkscape:zoom="5.6"
     inkscape:cx="-31.683997"
     inkscape:cy="-25.090023"
     inkscape:document-units="mm"
     inkscape:current-layer="layer1"
     showgrid="false"
     inkscape:window-width="2560"
     inkscape:window-height="1395"
     inkscape:window-x="-13"
     inkscape:window-y="-13"
     inkscape:window-maximized="1" />
  <metadata
     id="metadata3991">
    <rdf:RDF>
      <cc:Work
         rdf:about="">
        <dc:format>image/svg+xml</dc:format>
        <dc:type
           rdf:resource="http://purl.org/dc/dcmitype/StillImage" />
        <dc:title></dc:title>
      </cc:Work>
    </rdf:RDF>
  </metadata>
  <g
     inkscape:label="Layer 1"
     inkscape:groupmode="layer"
     id="layer1">
    <g
       transform="translate(-79.695789,273.02434)"
       id="g1315">
      <path
         sodipodi:nodetypes="zzzzzzzzzzzzzzzzsssssszzzz"
         inkscape:connector-curvature="0"
         id="path1166"
         d="m 72.953886,20.753762 c 0.219706,-0.720554 1.42941,-0.523109 1.923523,-1.103197 0.494114,-0.580088 -0.08801,-1.728933 0.253591,-2.331281 0.341605,-0.602348 0.627003,-1.014036 1.192391,-1.108208 0.565388,-0.09417 0.814937,0.49968 1.513386,0.486093 0.698448,-0.01359 0.825744,-1.13074 1.566569,-1.245827 0.740825,-0.115087 1.604504,0.08808 2.121533,0.550187 0.517028,0.462107 0.281145,1.441111 0.7043,1.838661 0.423156,0.397551 1.043983,-0.01314 1.370146,0.326972 0.326163,0.340114 -0.06436,0.897938 0.414819,1.393652 0.47918,0.495714 1.360184,0.632772 1.782087,1.192948 0.421904,0.560176 0.450199,0.932005 0.339446,1.499217 -0.110753,0.567211 -0.510389,1.2493 -1.103197,1.584077 -0.592809,0.334778 -0.688328,-0.05794 -2.14982,0.225184 -1.461492,0.283128 -2.369565,1.286295 -2.323464,3.053186 0.0461,1.766891 0.380928,2.790667 0.59666,3.492141 0.215732,0.701474 0.158547,1.741447 -0.962521,1.696822 -0.600627,-0.02391 -1.344952,-0.75927 -1.208384,-1.647778 0.107575,-0.69988 0.67847,-0.998179 0.611015,-3.541741 -0.05106,-1.925173 -0.522628,-2.997523 -1.012946,-3.108091 -0.656189,-0.147972 -1.084492,0.09467 -1.062641,0.612129 0.01953,0.462571 0.461677,1.268497 0.191889,1.636898 -0.571588,0.780515 -1.386464,0.410808 -1.666595,-0.187408 -0.280131,-0.598217 0.83859,-1.242279 0.437599,-1.899689 -0.400992,-0.657411 -1.072922,-0.351113 -2.176058,-1.148993 -1.103136,-0.79788 -1.573034,-1.5454 -1.353328,-2.265954 z"
         style="fill:#ffc000;fill-opacity:1;fill-rule:evenodd;stroke:#000000;stroke-width:0.30000001;stroke-linecap:butt;stroke-linejoin:miter;stroke-miterlimit:4;stroke-dasharray:none;stroke-opacity:1" />
      <path
         transform="matrix(0.41002875,-0.13990258,0.13990258,0.41002875,73.889898,14.557492)"
         d="m 12.490114,25.016981 -2.8740175,1.659315 -2.8740179,-1.659315 0,-3.31863 2.8740179,-1.659315 2.8740175,1.659315 z"
         inkscape:randomized="0"
         inkscape:rounded="0"
         inkscape:flatsided="true"
         sodipodi:arg2="1.0471976"
         sodipodi:arg1="0.52359878"
         sodipodi:r2="2.8740175"
         sodipodi:r1="3.31863"
         sodipodi:cy="23.357666"
         sodipodi:cx="9.6160965"
         sodipodi:sides="6"
         id="path1152"
         style="opacity:1;vector-effect:none;fill:#ffb400;fill-opacity:1;stroke:#000000;stroke-width:0.69245791;stroke-linecap:butt;stroke-linejoin:miter;stroke-miterlimit:4;stroke-dasharray:none;stroke-dashoffset:0;stroke-opacity:1;paint-order:stroke fill markers"
         sodipodi:type="star" />
      <path
         sodipodi:type="star"
         style="opacity:1;vector-effect:none;fill:#ffb400;fill-opacity:1;stroke:#000000;stroke-width:0.69245791;stroke-linecap:butt;stroke-linejoin:miter;stroke-miterlimit:4;stroke-dasharray:none;stroke-dashoffset:0;stroke-opacity:1;paint-order:stroke fill markers"
         id="path1154"
         sodipodi:sides="6"
         sodipodi:cx="9.6160965"
         sodipodi:cy="23.357666"
         sodipodi:r1="3.31863"
         sodipodi:r2="2.8740175"
         sodipodi:arg1="0.52359878"
         sodipodi:arg2="1.0471976"
         inkscape:flatsided="true"
         inkscape:rounded="0"
         inkscape:randomized="0"
         d="m 12.490114,25.016981 -2.8740175,1.659315 -2.8740179,-1.659315 0,-3.31863 2.8740179,-1.659315 2.8740175,1.659315 z"
         transform="matrix(0.41002875,-0.13990258,0.13990258,0.41002875,76.888331,13.66565)" />
      <path
         transform="matrix(0.41002875,-0.13990258,0.13990258,0.41002875,74.735614,11.685553)"
         d="m 12.490114,25.016981 -2.8740175,1.659315 -2.8740179,-1.659315 0,-3.31863 2.8740179,-1.659315 2.8740175,1.659315 z"
         inkscape:randomized="0"
         inkscape:rounded="0"
         inkscape:flatsided="true"
         sodipodi:arg2="1.0471976"
         sodipodi:arg1="0.52359878"
         sodipodi:r2="2.8740175"
         sodipodi:r1="3.31863"
         sodipodi:cy="23.357666"
         sodipodi:cx="9.6160965"
         sodipodi:sides="6"
         id="path1156"
         style="opacity:1;vector-effect:none;fill:#ffb400;fill-opacity:1;stroke:#000000;stroke-width:0.69245791;stroke-linecap:butt;stroke-linejoin:miter;stroke-miterlimit:4;stroke-dasharray:none;stroke-dashoffset:0;stroke-opacity:1;paint-order:stroke fill markers"
         sodipodi:type="star" />
      <path
         sodipodi:type="star"
         style="opacity:1;vector-effect:none;fill:#bc5800;fill-opacity:1;stroke:#000000;stroke-width:0.69245791;stroke-linecap:butt;stroke-linejoin:miter;stroke-miterlimit:4;stroke-dasharray:none;stroke-dashoffset:0;stroke-opacity:1;paint-order:stroke fill markers"
         id="path1158"
         sodipodi:sides="6"
         sodipodi:cx="9.6160965"
         sodipodi:cy="23.357666"
         sodipodi:r1="3.31863"
         sodipodi:r2="2.8740175"
         sodipodi:arg1="0.52359878"
         sodipodi:arg2="1.0471976"
         inkscape:flatsided="true"
         inkscape:rounded="0"
         inkscape:randomized="0"
         d="m 12.490114,25.016981 -2.8740175,1.659315 -2.8740179,-1.659315 0,-3.31863 2.8740179,-1.659315 2.8740175,1.659315 z"
         transform="matrix(0.41002875,-0.13990258,0.13990258,0.41002875,71.830688,12.477592)" />
      <path
         transform="matrix(0.41002875,-0.13990258,0.13990258,0.41002875,68.950395,13.330378)"
         d="m 12.490114,25.016981 -2.8740175,1.659315 -2.8740179,-1.659315 0,-3.31863 2.8740179,-1.659315 2.8740175,1.659315 z"
         inkscape:randomized="0"
         inkscape:rounded="0"
         inkscape:flatsided="true"
         sodipodi:arg2="1.0471976"
         sodipodi:arg1="0.52359878"
         sodipodi:r2="2.8740175"
         sodipodi:r1="3.31863"
         sodipodi:cy="23.357666"
         sodipodi:cx="9.6160965"
         sodipodi:sides="6"
         id="path1160"
         style="opacity:1;vector-effect:none;fill:#ffb400;fill-opacity:1;stroke:#000000;stroke-width:0.69245791;stroke-linecap:butt;stroke-linejoin:miter;stroke-miterlimit:4;stroke-dasharray:none;stroke-dashoffset:0;stroke-opacity:1;paint-order:stroke fill markers"
         sodipodi:type="star" />
      <path
         sodipodi:type="star"
         style="opacity:1;vector-effect:none;fill:#dc7700;fill-opacity:1;stroke:#000000;stroke-width:0.69245791;stroke-linecap:butt;stroke-linejoin:miter;stroke-miterlimit:4;stroke-dasharray:none;stroke-dashoffset:0;stroke-opacity:1;paint-order:stroke fill markers"
         id="path1162"
         sodipodi:sides="6"
         sodipodi:cx="9.6160965"
         sodipodi:cy="23.357666"
         sodipodi:r1="3.31863"
         sodipodi:r2="2.8740175"
         sodipodi:arg1="0.52359878"
         sodipodi:arg2="1.0471976"
         inkscape:flatsided="true"
         inkscape:rounded="0"
         inkscape:randomized="0"
         d="m 12.490114,25.016981 -2.8740175,1.659315 -2.8740179,-1.659315 0,-3.31863 2.8740179,-1.659315 2.8740175,1.659315 z"
         transform="matrix(0.41002875,-0.13990258,0.13990258,0.41002875,69.629285,10.44802)" />
      <path
         transform="matrix(0.41002875,-0.13990258,0.13990258,0.41002875,72.577865,9.5428321)"
         d="m 12.490114,25.016981 -2.8740175,1.659315 -2.8740179,-1.659315 0,-3.31863 2.8740179,-1.659315 2.8740175,1.659315 z"
         inkscape:randomized="0"
         inkscape:rounded="0"
         inkscape:flatsided="true"
         sodipodi:arg2="1.0471976"
         sodipodi:arg1="0.52359878"
         sodipodi:r2="2.8740175"
         sodipodi:r1="3.31863"
         sodipodi:cy="23.357666"
         sodipodi:cx="9.6160965"
         sodipodi:sides="6"
         id="path1164"
         style="opacity:1;vector-effect:none;fill:#dc7700;fill-opacity:1;stroke:#000000;stroke-width:0.69245791;stroke-linecap:butt;stroke-linejoin:miter;stroke-miterlimit:4;stroke-dasharray:none;stroke-dashoffset:0;stroke-opacity:1;paint-order:stroke fill markers"
         sodipodi:type="star" />
      <path
         sodipodi:nodetypes="zzzzzz"
         inkscape:connector-curvature="0"
         id="path1250"
         d="m 80.253604,22.391096 c -0.08667,-0.127598 0.295472,-0.59542 0.66705,-0.626758 0.371577,-0.03134 0.72077,0.04029 0.87746,0.143259 0.156691,0.102967 0.219365,0.210412 -0.01343,0.358147 -0.232796,0.147735 -0.557062,-0.225496 -0.86403,-0.179073 -0.306969,0.04642 -0.580379,0.432022 -0.66705,0.304425 z"
         style="fill:#ffffff;fill-opacity:0.50196078;fill-rule:evenodd;stroke:none;stroke-width:0.09884525px;stroke-linecap:butt;stroke-linejoin:miter;stroke-opacity:1" />
      <path
         style="fill:#ffffff;fill-opacity:0.50196078;fill-rule:evenodd;stroke:none;stroke-width:0.09884525px;stroke-linecap:butt;stroke-linejoin:miter;stroke-opacity:1"
         d="m 83.229272,21.568039 c -0.08667,-0.127598 0.295472,-0.59542 0.667049,-0.626758 0.371578,-0.03134 0.720771,0.04029 0.877461,0.143259 0.15669,0.102967 0.219365,0.210412 -0.01343,0.358147 -0.232796,0.147735 -0.557062,-0.225496 -0.864031,-0.179074 -0.306969,0.04642 -0.580378,0.432023 -0.667049,0.304426 z"
         id="path1252"
         inkscape:connector-curvature="0"
         sodipodi:nodetypes="zzzzzz" />
      <path
         style="fill:#ffffff;fill-opacity:0.50196078;fill-rule:evenodd;stroke:none;stroke-width:0.09884525px;stroke-linecap:butt;stroke-linejoin:miter;stroke-opacity:1"
         d="m 78.088332,20.383871 c -0.08667,-0.127597 0.295471,-0.595419 0.667049,-0.626758 0.371577,-0.03134 0.72077,0.04029 0.87746,0.143259 0.156691,0.102968 0.219366,0.210412 -0.01343,0.358148 -0.232796,0.147735 -0.557062,-0.225497 -0.86403,-0.179074 -0.306969,0.04642 -0.580379,0.432023 -0.667049,0.304425 z"
         id="path1254"
         inkscape:connector-curvature="0"
         sodipodi:nodetypes="zzzzzz" />
      <path
         sodipodi:nodetypes="zzzzzz"
         inkscape:connector-curvature="0"
         id="path1256"
         d="m 81.063999,19.560814 c -0.08667,-0.127598 0.295472,-0.595419 0.667049,-0.626758 0.371578,-0.03134 0.720771,0.04029 0.877461,0.143259 0.15669,0.102968 0.219365,0.210412 -0.01343,0.358147 -0.232796,0.147736 -0.557062,-0.225496 -0.864031,-0.179073 -0.306969,0.04642 -0.580378,0.432023 -0.667049,0.304425 z"
         style="fill:#ffffff;fill-opacity:0.50196078;fill-rule:evenodd;stroke:none;stroke-width:0.09884525px;stroke-linecap:butt;stroke-linejoin:miter;stroke-opacity:1" />
      <path
         sodipodi:nodetypes="zzzzzz"
         inkscape:connector-curvature="0"
         id="path1258"
         d="m 75.878177,18.28191 c -0.08667,-0.127598 0.295472,-0.595419 0.667049,-0.626758 0.371578,-0.03134 0.72077,0.04029 0.877461,0.143259 0.15669,0.102968 0.219365,0.210412 -0.01343,0.358147 -0.232795,0.147736 -0.557061,-0.225496 -0.86403,-0.179073 -0.306969,0.04642 -0.580379,0.432023 -0.66705,0.304425 z"
         style="fill:#ffffff;fill-opacity:0.50196078;fill-rule:evenodd;stroke:none;stroke-width:0.09884525px;stroke-linecap:butt;stroke-linejoin:miter;stroke-opacity:1" />
      <path
         style="fill:#ffffff;fill-opacity:0.50196078;fill-rule:evenodd;stroke:none;stroke-width:0.09884525px;stroke-linecap:butt;stroke-linejoin:miter;stroke-opacity:1"
         d="m 78.853844,17.458853 c -0.08667,-0.127598 0.295472,-0.595419 0.66705,-0.626757 0.371577,-0.03134 0.72077,0.04029 0.87746,0.143258 0.156691,0.102968 0.219365,0.210412 -0.01343,0.358147 -0.232796,0.147736 -0.557062,-0.225496 -0.86403,-0.179073 -0.306969,0.04642 -0.580379,0.432023 -0.66705,0.304425 z"
         id="path1260"
         inkscape:connector-curvature="0"
         sodipodi:nodetypes="zzzzzz" />
      <path
         style="fill:#ffffff;fill-opacity:0.50196078;fill-rule:evenodd;stroke:none;stroke-width:0.09884525px;stroke-linecap:butt;stroke-linejoin:miter;stroke-opacity:1"
         d="m 75.181744,21.232253 c -0.08667,-0.127598 0.295472,-0.59542 0.667049,-0.626758 0.371578,-0.03134 0.720771,0.04029 0.877461,0.143259 0.15669,0.102967 0.219365,0.210412 -0.01343,0.358147 -0.232795,0.147736 -0.557061,-0.225496 -0.86403,-0.179073 -0.306969,0.04642 -0.580378,0.432023 -0.66705,0.304425 z"
         id="path1262"
         inkscape:connector-curvature="0"
         sodipodi:nodetypes="zzzzzz" />
    </g>
  </g>
</svg>
